<svg width="48" height="48" viewBox="0 0 48 48" fill="none" xmlns="http://www.w3.org/2000/svg">
<rect width="48" height="48" rx="24" fill="#E1F0E6"/>
<path d="M31.5 15H29.25V14.25C29.25 14.0511 29.171 13.8603 29.0303 13.7197C28.8897 13.579 28.6989 13.5 28.5 13.5C28.3011 13.5 28.1103 13.579 27.9697 13.7197C27.829 13.8603 27.75 14.0511 27.75 14.25V15H20.25V14.25C20.25 14.0511 20.171 13.8603 20.0303 13.7197C19.8897 13.579 19.6989 13.5 19.5 13.5C19.3011 13.5 19.1103 13.579 18.9697 13.7197C18.829 13.8603 18.75 14.0511 18.75 14.25V15H16.5C16.1022 15 15.7206 15.158 15.4393 15.4393C15.158 15.7206 15 16.1022 15 16.5V31.5C15 31.8978 15.158 32.2794 15.4393 32.5607C15.7206 32.842 16.1022 33 16.5 33H31.5C31.8978 33 32.2794 32.842 32.5607 32.5607C32.842 32.2794 33 31.8978 33 31.5V16.5C33 16.1022 32.842 15.7206 32.5607 15.4393C32.2794 15.158 31.8978 15 31.5 15ZM18.75 16.5V17.25C18.75 17.4489 18.829 17.6397 18.9697 17.7803C19.1103 17.921 19.3011 18 19.5 18C19.6989 18 19.8897 17.921 20.0303 17.7803C20.171 17.6397 20.25 17.4489 20.25 17.25V16.5H27.75V17.25C27.75 17.4489 27.829 17.6397 27.9697 17.7803C28.1103 17.921 28.3011 18 28.5 18C28.6989 18 28.8897 17.921 29.0303 17.7803C29.171 17.6397 29.25 17.4489 29.25 17.25V16.5H31.5V19.5H16.5V16.5H18.75ZM31.5 31.5H16.5V21H31.5V31.5ZM25.125 24.375C25.125 24.5975 25.059 24.815 24.9354 25C24.8118 25.185 24.6361 25.3292 24.4305 25.4144C24.225 25.4995 23.9988 25.5218 23.7805 25.4784C23.5623 25.435 23.3618 25.3278 23.2045 25.1705C23.0472 25.0132 22.94 24.8127 22.8966 24.5945C22.8532 24.3762 22.8755 24.15 22.9606 23.9445C23.0458 23.7389 23.19 23.5632 23.375 23.4396C23.56 23.316 23.7775 23.25 24 23.25C24.2984 23.25 24.5845 23.3685 24.7955 23.5795C25.0065 23.7905 25.125 24.0766 25.125 24.375ZM29.25 24.375C29.25 24.5975 29.184 24.815 29.0604 25C28.9368 25.185 28.7611 25.3292 28.5555 25.4144C28.35 25.4995 28.1238 25.5218 27.9055 25.4784C27.6873 25.435 27.4868 25.3278 27.3295 25.1705C27.1722 25.0132 27.065 24.8127 27.0216 24.5945C26.9782 24.3762 27.0005 24.15 27.0856 23.9445C27.1708 23.7389 27.315 23.5632 27.5 23.4396C27.685 23.316 27.9025 23.25 28.125 23.25C28.4234 23.25 28.7095 23.3685 28.9205 23.5795C29.1315 23.7905 29.25 24.0766 29.25 24.375ZM21 28.125C21 28.3475 20.934 28.565 20.8104 28.75C20.6868 28.935 20.5111 29.0792 20.3055 29.1644C20.1 29.2495 19.8738 29.2718 19.6555 29.2284C19.4373 29.185 19.2368 29.0778 19.0795 28.9205C18.9222 28.7632 18.815 28.5627 18.7716 28.3445C18.7282 28.1262 18.7505 27.9 18.8356 27.6945C18.9208 27.4889 19.065 27.3132 19.25 27.1896C19.435 27.066 19.6525 27 19.875 27C20.1734 27 20.4595 27.1185 20.6705 27.3295C20.8815 27.5405 21 27.8266 21 28.125ZM25.125 28.125C25.125 28.3475 25.059 28.565 24.9354 28.75C24.8118 28.935 24.6361 29.0792 24.4305 29.1644C24.225 29.2495 23.9988 29.2718 23.7805 29.2284C23.5623 29.185 23.3618 29.0778 23.2045 28.9205C23.0472 28.7632 22.94 28.5627 22.8966 28.3445C22.8532 28.1262 22.8755 27.9 22.9606 27.6945C23.0458 27.4889 23.19 27.3132 23.375 27.1896C23.56 27.066 23.7775 27 24 27C24.2984 27 24.5845 27.1185 24.7955 27.3295C25.0065 27.5405 25.125 27.8266 25.125 28.125ZM29.25 28.125C29.25 28.3475 29.184 28.565 29.0604 28.75C28.9368 28.935 28.7611 29.0792 28.5555 29.1644C28.35 29.2495 28.1238 29.2718 27.9055 29.2284C27.6873 29.185 27.4868 29.0778 27.3295 28.9205C27.1722 28.7632 27.065 28.5627 27.0216 28.3445C26.9782 28.1262 27.0005 27.9 27.0856 27.6945C27.1708 27.4889 27.315 27.3132 27.5 27.1896C27.685 27.066 27.9025 27 28.125 27C28.4234 27 28.7095 27.1185 28.9205 27.3295C29.1315 27.5405 29.25 27.8266 29.25 28.125Z" fill="#56986E"/>
</svg>
