<svg width="48" height="48" viewBox="0 0 48 48" fill="none" xmlns="http://www.w3.org/2000/svg">
<rect width="48" height="48" rx="24" fill="#F9E5D5"/>
<path d="M30.523 24.0994L25.6874 22.3125L23.9062 17.4731C23.8007 17.1866 23.6098 16.9392 23.3594 16.7645C23.1089 16.5899 22.8109 16.4962 22.5055 16.4962C22.2002 16.4962 21.9022 16.5899 21.6517 16.7645C21.4012 16.9392 21.2104 17.1866 21.1049 17.4731L19.3124 22.3125L14.473 24.0938C14.1865 24.1992 13.9391 24.3901 13.7645 24.6405C13.5898 24.891 13.4961 25.189 13.4961 25.4944C13.4961 25.7997 13.5898 26.0978 13.7645 26.3482C13.9391 26.5987 14.1865 26.7895 14.473 26.895L19.3124 28.6875L21.0937 33.5269C21.1991 33.8134 21.39 34.0608 21.6404 34.2355C21.8909 34.4101 22.1889 34.5038 22.4943 34.5038C22.7996 34.5038 23.0977 34.4101 23.3481 34.2355C23.5986 34.0608 23.7894 33.8134 23.8949 33.5269L25.6874 28.6875L30.5268 26.9062C30.8133 26.8008 31.0607 26.6099 31.2354 26.3595C31.41 26.109 31.5037 25.811 31.5037 25.5056C31.5037 25.2003 31.41 24.9022 31.2354 24.6518C31.0607 24.4013 30.8133 24.2105 30.5268 24.105L30.523 24.0994ZM24.8437 27.3956C24.7419 27.4331 24.6494 27.4923 24.5727 27.569C24.496 27.6457 24.4368 27.7382 24.3993 27.84L22.4999 32.9859L20.6043 27.8438C20.5668 27.7409 20.5073 27.6474 20.4299 27.57C20.3525 27.4926 20.259 27.4331 20.1562 27.3956L15.014 25.5L20.1562 23.6044C20.259 23.5669 20.3525 23.5074 20.4299 23.43C20.5073 23.3526 20.5668 23.2591 20.6043 23.1562L22.4999 18.0141L24.3955 23.1562C24.4331 23.2581 24.4922 23.3505 24.5689 23.4272C24.6456 23.5039 24.7381 23.5631 24.8399 23.6006L29.9858 25.5L24.8437 27.3956ZM25.4999 15.75C25.4999 15.5511 25.5789 15.3603 25.7196 15.2197C25.8602 15.079 26.051 15 26.2499 15H27.7499V13.5C27.7499 13.3011 27.8289 13.1103 27.9696 12.9697C28.1102 12.829 28.301 12.75 28.4999 12.75C28.6988 12.75 28.8896 12.829 29.0302 12.9697C29.1709 13.1103 29.2499 13.3011 29.2499 13.5V15H30.7499C30.9488 15 31.1396 15.079 31.2802 15.2197C31.4209 15.3603 31.4999 15.5511 31.4999 15.75C31.4999 15.9489 31.4209 16.1397 31.2802 16.2803C31.1396 16.421 30.9488 16.5 30.7499 16.5H29.2499V18C29.2499 18.1989 29.1709 18.3897 29.0302 18.5303C28.8896 18.671 28.6988 18.75 28.4999 18.75C28.301 18.75 28.1102 18.671 27.9696 18.5303C27.8289 18.3897 27.7499 18.1989 27.7499 18V16.5H26.2499C26.051 16.5 25.8602 16.421 25.7196 16.2803C25.5789 16.1397 25.4999 15.9489 25.4999 15.75ZM35.2499 20.25C35.2499 20.4489 35.1709 20.6397 35.0302 20.7803C34.8896 20.921 34.6988 21 34.4999 21H33.7499V21.75C33.7499 21.9489 33.6709 22.1397 33.5302 22.2803C33.3896 22.421 33.1988 22.5 32.9999 22.5C32.801 22.5 32.6102 22.421 32.4696 22.2803C32.3289 22.1397 32.2499 21.9489 32.2499 21.75V21H31.4999C31.301 21 31.1102 20.921 30.9696 20.7803C30.8289 20.6397 30.7499 20.4489 30.7499 20.25C30.7499 20.0511 30.8289 19.8603 30.9696 19.7197C31.1102 19.579 31.301 19.5 31.4999 19.5H32.2499V18.75C32.2499 18.5511 32.3289 18.3603 32.4696 18.2197C32.6102 18.079 32.801 18 32.9999 18C33.1988 18 33.3896 18.079 33.5302 18.2197C33.6709 18.3603 33.7499 18.5511 33.7499 18.75V19.5H34.4999C34.6988 19.5 34.8896 19.579 35.0302 19.7197C35.1709 19.8603 35.2499 20.0511 35.2499 20.25Z" fill="#BB6927"/>
</svg>
