<svg width="48" height="48" viewBox="0 0 48 48" fill="none" xmlns="http://www.w3.org/2000/svg">
<rect width="48" height="48" rx="24" fill="#E6F0FF"/>
<path d="M34.9503 26.1C34.8715 26.1591 34.7818 26.2021 34.6864 26.2265C34.591 26.251 34.4917 26.2564 34.3942 26.2424C34.2967 26.2285 34.2029 26.1955 34.1182 26.1453C34.0334 26.0952 33.9594 26.0288 33.9003 25.95C33.4482 25.3424 32.8598 24.8493 32.1824 24.5107C31.5051 24.172 30.7576 23.997 30.0003 24C29.8528 24 29.7086 23.9565 29.5857 23.8749C29.4628 23.7934 29.3667 23.6774 29.3093 23.5415C29.2704 23.4493 29.2504 23.3501 29.2504 23.25C29.2504 23.1498 29.2704 23.0507 29.3093 22.9584C29.3667 22.8225 29.4628 22.7066 29.5857 22.625C29.7086 22.5435 29.8528 22.5 30.0003 22.5C30.4211 22.4999 30.8335 22.3819 31.1906 22.1592C31.5476 21.9366 31.8351 21.6183 32.0204 21.2404C32.2056 20.8625 32.2812 20.4403 32.2385 20.0217C32.1958 19.603 32.0365 19.2047 31.7788 18.8721C31.5211 18.5394 31.1753 18.2857 30.7806 18.1397C30.3859 17.9937 29.9582 17.9614 29.546 18.0463C29.1338 18.1312 28.7538 18.33 28.4489 18.6201C28.1441 18.9102 27.9267 19.28 27.8215 19.6875C27.7969 19.7829 27.7537 19.8725 27.6945 19.9513C27.6352 20.03 27.561 20.0963 27.4761 20.1463C27.3913 20.1964 27.2974 20.2292 27.1998 20.243C27.1022 20.2568 27.0029 20.2512 26.9075 20.2265C26.8121 20.2019 26.7224 20.1587 26.6437 20.0995C26.565 20.0402 26.4987 19.966 26.4486 19.8812C26.3986 19.7963 26.3657 19.7024 26.352 19.6048C26.3382 19.5072 26.3438 19.4079 26.3684 19.3125C26.5144 18.7475 26.7903 18.2243 27.1741 17.7847C27.5579 17.3451 28.039 17.0011 28.5791 16.7801C29.1192 16.5591 29.7034 16.4672 30.2853 16.5117C30.8672 16.5563 31.4307 16.736 31.9309 17.0366C32.431 17.3372 32.8542 17.7505 33.1666 18.2434C33.479 18.7363 33.672 19.2953 33.7303 19.876C33.7887 20.4567 33.7107 21.0429 33.5026 21.5881C33.2944 22.1333 32.9619 22.6224 32.5315 23.0165C33.5514 23.4581 34.4379 24.1588 35.1031 25.049C35.1622 25.128 35.2051 25.2179 35.2294 25.3135C35.2537 25.4091 35.2589 25.5086 35.2447 25.6062C35.2305 25.7038 35.1972 25.7977 35.1467 25.8824C35.0962 25.9672 35.0294 26.0411 34.9503 26.1ZM29.899 31.875C29.9533 31.9603 29.9897 32.0558 30.0062 32.1556C30.0226 32.2554 30.0186 32.3575 29.9946 32.4558C29.9705 32.554 29.9268 32.6464 29.8661 32.7273C29.8054 32.8082 29.729 32.876 29.6414 32.9267C29.5539 32.9773 29.4569 33.0097 29.3565 33.0219C29.2561 33.0341 29.1543 33.0258 29.0571 32.9976C28.96 32.9695 28.8695 32.9219 28.7912 32.8579C28.713 32.7938 28.6484 32.7146 28.6015 32.625C28.1291 31.825 27.4562 31.162 26.6493 30.7014C25.8424 30.2409 24.9294 29.9986 24.0003 29.9986C23.0712 29.9986 22.1582 30.2409 21.3513 30.7014C20.5444 31.162 19.8715 31.825 19.399 32.625C19.3521 32.7146 19.2876 32.7938 19.2093 32.8579C19.131 32.9219 19.0406 32.9695 18.9434 32.9976C18.8463 33.0258 18.7444 33.0341 18.644 33.0219C18.5436 33.0097 18.4467 32.9773 18.3591 32.9267C18.2716 32.876 18.1951 32.8082 18.1344 32.7273C18.0738 32.6464 18.0301 32.554 18.006 32.4558C17.9819 32.3575 17.978 32.2554 17.9944 32.1556C18.0108 32.0558 18.0473 31.9603 18.1015 31.875C18.8287 30.6257 19.9373 29.6425 21.2647 29.07C20.5178 28.4981 19.9689 27.7066 19.6951 26.8067C19.4213 25.9068 19.4364 24.9437 19.7383 24.0528C20.0402 23.1619 20.6137 22.388 21.3782 21.8399C22.1426 21.2918 23.0596 20.997 24.0003 20.997C24.9409 20.997 25.8579 21.2918 26.6224 21.8399C27.3869 22.388 27.9603 23.1619 28.2622 24.0528C28.5641 24.9437 28.5792 25.9068 28.3055 26.8067C28.0317 27.7066 27.4828 28.4981 26.7359 29.07C28.0632 29.6425 29.1719 30.6257 29.899 31.875ZM24.0003 28.5C24.5936 28.5 25.1736 28.324 25.667 27.9944C26.1603 27.6648 26.5449 27.1962 26.7719 26.648C26.999 26.0999 27.0584 25.4967 26.9426 24.9147C26.8269 24.3328 26.5412 23.7982 26.1216 23.3787C25.702 22.9591 25.1675 22.6734 24.5856 22.5576C24.0036 22.4419 23.4004 22.5013 22.8522 22.7283C22.3041 22.9554 21.8355 23.3399 21.5059 23.8333C21.1762 24.3266 21.0003 24.9066 21.0003 25.5C21.0003 26.2956 21.3164 27.0587 21.879 27.6213C22.4416 28.1839 23.2046 28.5 24.0003 28.5ZM18.7503 23.25C18.7503 23.0511 18.6713 22.8603 18.5306 22.7197C18.39 22.579 18.1992 22.5 18.0003 22.5C17.5795 22.4999 17.1671 22.3819 16.81 22.1592C16.4529 21.9366 16.1654 21.6183 15.9802 21.2404C15.795 20.8625 15.7194 20.4403 15.7621 20.0217C15.8048 19.603 15.964 19.2047 16.2218 18.8721C16.4795 18.5394 16.8253 18.2857 17.22 18.1397C17.6147 17.9937 18.0424 17.9614 18.4546 18.0463C18.8667 18.1312 19.2468 18.33 19.5516 18.6201C19.8565 18.9102 20.0738 19.28 20.179 19.6875C20.2288 19.8802 20.353 20.0452 20.5244 20.1463C20.6958 20.2474 20.9004 20.2763 21.0931 20.2265C21.2858 20.1768 21.4508 20.0526 21.5519 19.8812C21.653 19.7097 21.6819 19.5052 21.6322 19.3125C21.4861 18.7475 21.2103 18.2243 20.8265 17.7847C20.4427 17.3451 19.9616 17.0011 19.4215 16.7801C18.8814 16.5591 18.2971 16.4672 17.7152 16.5117C17.1334 16.5563 16.5699 16.736 16.0697 17.0366C15.5695 17.3372 15.1464 17.7505 14.834 18.2434C14.5216 18.7363 14.3286 19.2953 14.2702 19.876C14.2119 20.4567 14.2899 21.0429 14.498 21.5881C14.7061 22.1333 15.0386 22.6224 15.469 23.0165C14.4502 23.4585 13.5647 24.1592 12.9003 25.049C12.7808 25.2082 12.7294 25.4082 12.7575 25.6053C12.7855 25.8023 12.8907 25.98 13.0498 26.0995C13.2089 26.219 13.409 26.2704 13.606 26.2423C13.803 26.2143 13.9808 26.1091 14.1003 25.95C14.5523 25.3424 15.1407 24.8493 15.8181 24.5107C16.4955 24.172 17.2429 23.997 18.0003 24C18.1992 24 18.39 23.921 18.5306 23.7803C18.6713 23.6397 18.7503 23.4489 18.7503 23.25Z" fill="#0457D4"/>
</svg>
