<svg width="19" height="19" viewBox="0 0 19 19" fill="none" xmlns="http://www.w3.org/2000/svg">
<path d="M18.7172 16.2383L15.6056 1.44452C15.5654 1.25105 15.4873 1.06745 15.3759 0.904254C15.2645 0.741056 15.1219 0.60148 14.9564 0.493545C14.7909 0.385609 14.6057 0.311441 14.4114 0.275301C14.2171 0.239161 14.0176 0.241761 13.8244 0.282953L9.43594 1.22608C9.04776 1.31107 8.70885 1.54589 8.49291 1.87946C8.27696 2.21303 8.20146 2.61838 8.28281 3.00733L11.3944 17.8011C11.4637 18.1386 11.6471 18.442 11.9138 18.6601C12.1805 18.8783 12.5142 18.9981 12.8588 18.9992C12.9653 18.9991 13.0715 18.9877 13.1756 18.9655L17.5641 18.0223C17.9527 17.9371 18.292 17.7018 18.5079 17.3677C18.7239 17.0336 18.7991 16.6276 18.7172 16.2383ZM9.75 2.70077C9.75 2.69514 9.75 2.69233 9.75 2.69233L14.1375 1.75483L14.4497 3.24264L10.0622 4.1867L9.75 2.70077ZM10.3706 5.65108L14.76 4.70889L15.0731 6.19952L10.6875 7.14264L10.3706 5.65108ZM10.9931 8.61077L15.3825 7.66764L16.6294 13.5964L12.24 14.5395L10.9931 8.61077ZM17.25 16.5561L12.8625 17.4936L12.5503 16.0058L16.9378 15.0617L17.25 16.5476C17.25 16.5533 17.25 16.5561 17.25 16.5561ZM6.75 0.999203H2.25C1.85218 0.999203 1.47064 1.15724 1.18934 1.43854C0.908035 1.71985 0.75 2.10138 0.75 2.4992V17.4992C0.75 17.897 0.908035 18.2786 1.18934 18.5599C1.47064 18.8412 1.85218 18.9992 2.25 18.9992H6.75C7.14782 18.9992 7.52936 18.8412 7.81066 18.5599C8.09196 18.2786 8.25 17.897 8.25 17.4992V2.4992C8.25 2.10138 8.09196 1.71985 7.81066 1.43854C7.52936 1.15724 7.14782 0.999203 6.75 0.999203ZM2.25 2.4992H6.75V3.9992H2.25V2.4992ZM2.25 5.4992H6.75V14.4992H2.25V5.4992ZM6.75 17.4992H2.25V15.9992H6.75V17.4992Z" fill="#2C3A47"/>
</svg>
