<svg width="16" height="16" viewBox="0 0 16 16" fill="none" xmlns="http://www.w3.org/2000/svg">
<path d="M6.875 14.875C6.875 15.0408 6.80915 15.1997 6.69194 15.3169C6.57473 15.4342 6.41576 15.5 6.25 15.5H1.25C1.08424 15.5 0.925269 15.4342 0.808058 15.3169C0.690848 15.1997 0.625 15.0408 0.625 14.875V1.125C0.625 0.95924 0.690848 0.800269 0.808058 0.683058C0.925269 0.565848 1.08424 0.5 1.25 0.5H6.25C6.41576 0.5 6.57473 0.565848 6.69194 0.683058C6.80915 0.800269 6.875 0.95924 6.875 1.125C6.875 1.29076 6.80915 1.44973 6.69194 1.56694C6.57473 1.68415 6.41576 1.75 6.25 1.75H1.875V14.25H6.25C6.41576 14.25 6.57473 14.3158 6.69194 14.4331C6.80915 14.5503 6.875 14.7092 6.875 14.875ZM15.4422 7.55781L12.3172 4.43281C12.1999 4.31554 12.0409 4.24965 11.875 4.24965C11.7091 4.24965 11.5501 4.31554 11.4328 4.43281C11.3155 4.55009 11.2497 4.70915 11.2497 4.875C11.2497 5.04085 11.3155 5.19991 11.4328 5.31719L13.4914 7.375H6.25C6.08424 7.375 5.92527 7.44085 5.80806 7.55806C5.69085 7.67527 5.625 7.83424 5.625 8C5.625 8.16576 5.69085 8.32473 5.80806 8.44194C5.92527 8.55915 6.08424 8.625 6.25 8.625H13.4914L11.4328 10.6828C11.3155 10.8001 11.2497 10.9591 11.2497 11.125C11.2497 11.2909 11.3155 11.4499 11.4328 11.5672C11.5501 11.6845 11.7091 11.7503 11.875 11.7503C12.0409 11.7503 12.1999 11.6845 12.3172 11.5672L15.4422 8.44219C15.5003 8.38414 15.5464 8.31521 15.5779 8.23934C15.6093 8.16346 15.6255 8.08213 15.6255 8C15.6255 7.91787 15.6093 7.83654 15.5779 7.76066C15.5464 7.68479 15.5003 7.61586 15.4422 7.55781Z" fill="#0568FF"/>
</svg>
