<svg width="18" height="19" viewBox="0 0 18 19" fill="none" xmlns="http://www.w3.org/2000/svg">
<path d="M18 18.25C18 18.4489 17.921 18.6397 17.7803 18.7803C17.6397 18.921 17.4489 19 17.25 19H0.75C0.551088 19 0.360322 18.921 0.21967 18.7803C0.0790178 18.6397 0 18.4489 0 18.25C0 18.0511 0.0790178 17.8603 0.21967 17.7197C0.360322 17.579 0.551088 17.5 0.75 17.5H17.25C17.4489 17.5 17.6397 17.579 17.7803 17.7197C17.921 17.8603 18 18.0511 18 18.25ZM9.75 14.5V5.5C9.75 5.10218 9.90804 4.72064 10.1893 4.43934C10.4706 4.15804 10.8522 4 11.25 4H15C15.3978 4 15.7794 4.15804 16.0607 4.43934C16.342 4.72064 16.5 5.10218 16.5 5.5V14.5C16.5 14.8978 16.342 15.2794 16.0607 15.5607C15.7794 15.842 15.3978 16 15 16H11.25C10.8522 16 10.4706 15.842 10.1893 15.5607C9.90804 15.2794 9.75 14.8978 9.75 14.5ZM11.25 14.5H15V5.5H11.25V14.5ZM1.5 14.5V1.75C1.5 1.35218 1.65804 0.970644 1.93934 0.68934C2.22064 0.408035 2.60218 0.25 3 0.25H6.75C7.14782 0.25 7.52936 0.408035 7.81066 0.68934C8.09196 0.970644 8.25 1.35218 8.25 1.75V14.5C8.25 14.8978 8.09196 15.2794 7.81066 15.5607C7.52936 15.842 7.14782 16 6.75 16H3C2.60218 16 2.22064 15.842 1.93934 15.5607C1.65804 15.2794 1.5 14.8978 1.5 14.5ZM3 14.5H6.75V1.75H3V14.5Z" fill="#2C3A47"/>
</svg>
