<svg width="22" height="20" viewBox="0 0 22 20" fill="none" xmlns="http://www.w3.org/2000/svg">
<path d="M10.9999 5.49998C10.1099 5.49998 9.23989 5.7639 8.49987 6.25837C7.75985 6.75284 7.18307 7.45564 6.84248 8.27791C6.50188 9.10017 6.41277 10.005 6.5864 10.8779C6.76003 11.7508 7.18862 12.5526 7.81795 13.182C8.44729 13.8113 9.24911 14.2399 10.122 14.4135C10.9949 14.5872 11.8997 14.498 12.722 14.1574C13.5443 13.8168 14.2471 13.2401 14.7415 12.5C15.236 11.76 15.4999 10.89 15.4999 9.99998C15.4987 8.80689 15.0242 7.66302 14.1805 6.81937C13.3369 5.97573 12.193 5.50122 10.9999 5.49998ZM10.9999 13C10.4066 13 9.82657 12.824 9.33322 12.4944C8.83988 12.1647 8.45536 11.6962 8.2283 11.148C8.00123 10.5999 7.94182 9.99666 8.05758 9.41471C8.17333 8.83277 8.45906 8.29822 8.87861 7.87866C9.29817 7.45911 9.83272 7.17338 10.4147 7.05763C10.9966 6.94187 11.5998 7.00128 12.148 7.22834C12.6962 7.45541 13.1647 7.83993 13.4943 8.33327C13.824 8.82662 13.9999 9.40664 13.9999 9.99998C13.9999 10.7956 13.6839 11.5587 13.1213 12.1213C12.5586 12.6839 11.7956 13 10.9999 13ZM21.3068 8.05092C21.2859 7.94531 21.2425 7.84543 21.1796 7.75807C21.1167 7.67072 21.0357 7.59793 20.9421 7.54467L18.1456 5.95092L18.1343 2.79904C18.134 2.6905 18.1101 2.58331 18.0643 2.4849C18.0185 2.38649 17.9518 2.29919 17.869 2.22904C16.8546 1.37095 15.6864 0.713357 14.4265 0.291232C14.3273 0.257651 14.2221 0.245223 14.1178 0.25475C14.0135 0.264276 13.9124 0.295546 13.8209 0.346545L10.9999 1.92342L8.17618 0.343732C8.08464 0.292446 7.98335 0.260941 7.87887 0.251251C7.77439 0.241562 7.66904 0.253905 7.56962 0.287482C6.3107 0.712692 5.14383 1.37279 4.13087 2.23279C4.04815 2.30284 3.9816 2.38999 3.9358 2.48823C3.89 2.58647 3.86603 2.69347 3.86556 2.80186L3.8515 5.95655L1.05493 7.5503C0.961373 7.60356 0.880376 7.67634 0.817448 7.7637C0.75452 7.85105 0.711137 7.95093 0.690247 8.05655C0.434306 9.34269 0.434306 10.6667 0.690247 11.9528C0.711137 12.0584 0.75452 12.1583 0.817448 12.2456C0.880376 12.333 0.961373 12.4058 1.05493 12.459L3.8515 14.0528L3.86275 17.2047C3.86309 17.3132 3.88699 17.4204 3.93279 17.5188C3.9786 17.6172 4.04522 17.7045 4.12806 17.7747C5.1425 18.6328 6.31071 19.2904 7.57056 19.7125C7.66977 19.7461 7.77492 19.7585 7.87923 19.749C7.98354 19.7394 8.08469 19.7082 8.17618 19.6572L10.9999 18.0765L13.8237 19.6562C13.9354 19.7185 14.0614 19.7508 14.1893 19.75C14.2712 19.75 14.3526 19.7367 14.4302 19.7106C15.689 19.286 16.8559 18.6265 17.869 17.7672C17.9517 17.6971 18.0183 17.61 18.0641 17.5117C18.1099 17.4135 18.1338 17.3065 18.1343 17.1981L18.1484 14.0434L20.9449 12.4497C21.0385 12.3964 21.1195 12.3236 21.1824 12.2363C21.2453 12.1489 21.2887 12.049 21.3096 11.9434C21.5641 10.6583 21.5632 9.33566 21.3068 8.05092ZM19.9006 11.3237L17.2221 12.8472C17.1048 12.9139 17.0076 13.0111 16.9409 13.1284C16.8865 13.2222 16.8293 13.3215 16.7712 13.4153C16.6968 13.5335 16.6571 13.6703 16.6568 13.81L16.6427 16.8334C15.9228 17.3988 15.1208 17.8509 14.2643 18.174L11.5624 16.6684C11.4503 16.6064 11.3241 16.5741 11.1959 16.5747H11.1781C11.0646 16.5747 10.9502 16.5747 10.8368 16.5747C10.7026 16.5713 10.57 16.6037 10.4524 16.6684L7.74868 18.1778C6.89041 17.8571 6.08614 17.4072 5.36368 16.8437L5.35337 13.825C5.35291 13.685 5.31329 13.548 5.239 13.4294C5.18087 13.3356 5.12368 13.2419 5.07025 13.1425C5.00399 13.0233 4.90683 12.9242 4.789 12.8556L2.10775 11.3284C1.969 10.4507 1.969 9.55672 2.10775 8.67905L4.7815 7.1528C4.89885 7.08607 4.99602 6.9889 5.06275 6.87155C5.11712 6.7778 5.17431 6.67842 5.23243 6.58467C5.30684 6.46645 5.34647 6.32967 5.34681 6.18998L5.36087 3.16654C6.0808 2.60118 6.88286 2.14909 7.73931 1.82592L10.4374 3.33154C10.5549 3.39664 10.6876 3.42901 10.8218 3.42529C10.9352 3.42529 11.0496 3.42529 11.1631 3.42529C11.2972 3.42865 11.4299 3.39629 11.5474 3.33154L14.2512 1.82217C15.1095 2.14286 15.9137 2.59274 16.6362 3.15623L16.6465 6.17498C16.647 6.31495 16.6866 6.45199 16.7609 6.57061C16.819 6.66436 16.8762 6.75811 16.9296 6.85748C16.9959 6.97665 17.093 7.07575 17.2109 7.14436L19.8921 8.67155C20.0327 9.5499 20.0343 10.4449 19.8968 11.3237H19.9006Z" fill="#2C3A47"/>
</svg>
