<svg width="24" height="18" viewBox="0 0 24 18" fill="none" xmlns="http://www.w3.org/2000/svg">
<path d="M22.9503 10.1C22.8715 10.1591 22.7818 10.2021 22.6864 10.2266C22.591 10.251 22.4917 10.2564 22.3942 10.2425C22.2967 10.2285 22.2029 10.1956 22.1182 10.1454C22.0334 10.0952 21.9594 10.0288 21.9003 9.95002C21.4482 9.34239 20.8598 8.84938 20.1824 8.51069C19.5051 8.172 18.7576 7.99708 18.0003 8.00002C17.8528 8 17.7086 7.95651 17.5857 7.87497C17.4628 7.79343 17.3667 7.67746 17.3093 7.54158C17.2704 7.4493 17.2504 7.35017 17.2504 7.25002C17.2504 7.14986 17.2704 7.05073 17.3093 6.95845C17.3667 6.82257 17.4628 6.70661 17.5857 6.62507C17.7086 6.54353 17.8528 6.50003 18.0003 6.50002C18.4211 6.49998 18.8335 6.38193 19.1906 6.15927C19.5476 5.93662 19.8351 5.61828 20.0204 5.24043C20.2056 4.86257 20.2812 4.44034 20.2385 4.0217C20.1958 3.60305 20.0365 3.20477 19.7788 2.8721C19.5211 2.53942 19.1753 2.28569 18.7806 2.13972C18.3859 1.99374 17.9582 1.96138 17.546 2.04631C17.1338 2.13124 16.7538 2.33005 16.4489 2.62016C16.1441 2.91027 15.9267 3.28006 15.8215 3.68752C15.7969 3.78293 15.7537 3.87256 15.6945 3.95129C15.6352 4.03001 15.561 4.0963 15.4761 4.14636C15.3913 4.19641 15.2974 4.22926 15.1998 4.24302C15.1022 4.25679 15.0029 4.2512 14.9075 4.22658C14.8121 4.20195 14.7224 4.15878 14.6437 4.09952C14.565 4.04026 14.4987 3.96607 14.4486 3.88119C14.3986 3.79631 14.3657 3.7024 14.352 3.60483C14.3382 3.50726 14.3438 3.40793 14.3684 3.31251C14.5144 2.7475 14.7903 2.22436 15.1741 1.78472C15.5579 1.34508 16.039 1.00108 16.5791 0.780093C17.1192 0.559103 17.7034 0.467223 18.2853 0.511762C18.8672 0.556301 19.4307 0.736031 19.9309 1.03665C20.431 1.33727 20.8542 1.75048 21.1666 2.24341C21.479 2.73633 21.672 3.29537 21.7303 3.87602C21.7887 4.45668 21.7107 5.04294 21.5026 5.58815C21.2944 6.13337 20.9619 6.62248 20.5315 7.01658C21.5514 7.45814 22.4379 8.15884 23.1031 9.04908C23.1622 9.12807 23.2051 9.21795 23.2294 9.31356C23.2537 9.40916 23.2589 9.50863 23.2447 9.60625C23.2305 9.70387 23.1972 9.79774 23.1467 9.88247C23.0962 9.96719 23.0294 10.0411 22.9503 10.1ZM17.899 15.875C17.9533 15.9604 17.9897 16.0558 18.0062 16.1556C18.0226 16.2555 18.0186 16.3576 17.9946 16.4558C17.9705 16.5541 17.9268 16.6464 17.8661 16.7273C17.8054 16.8083 17.729 16.8761 17.6414 16.9267C17.5539 16.9773 17.4569 17.0097 17.3565 17.0219C17.2561 17.0341 17.1543 17.0259 17.0571 16.9977C16.96 16.9695 16.8695 16.9219 16.7912 16.8579C16.713 16.7939 16.6484 16.7146 16.6015 16.625C16.1291 15.825 15.4562 15.162 14.6493 14.7015C13.8424 14.2409 12.9294 13.9986 12.0003 13.9986C11.0712 13.9986 10.1582 14.2409 9.35126 14.7015C8.54436 15.162 7.87149 15.825 7.39903 16.625C7.35215 16.7146 7.28762 16.7939 7.20932 16.8579C7.13102 16.9219 7.04058 16.9695 6.94344 16.9977C6.84629 17.0259 6.74445 17.0341 6.64403 17.0219C6.54362 17.0097 6.44671 16.9773 6.35914 16.9267C6.27156 16.8761 6.19513 16.8083 6.13445 16.7273C6.07376 16.6464 6.03007 16.5541 6.00601 16.4558C5.98194 16.3576 5.978 16.2555 5.99441 16.1556C6.01083 16.0558 6.04727 15.9604 6.10153 15.875C6.82866 14.6257 7.93734 13.6425 9.26466 13.07C8.51778 12.4982 7.96887 11.7067 7.6951 10.8067C7.42132 9.9068 7.43644 8.9437 7.73833 8.0528C8.04022 7.16191 8.6137 6.38801 9.37816 5.8399C10.1426 5.29179 11.0596 4.99701 12.0003 4.99701C12.9409 4.99701 13.8579 5.29179 14.6224 5.8399C15.3869 6.38801 15.9603 7.16191 16.2622 8.0528C16.5641 8.9437 16.5792 9.9068 16.3055 10.8067C16.0317 11.7067 15.4828 12.4982 14.7359 13.07C16.0632 13.6425 17.1719 14.6257 17.899 15.875ZM12.0003 12.5C12.5936 12.5 13.1736 12.3241 13.667 11.9944C14.1603 11.6648 14.5449 11.1962 14.7719 10.6481C14.999 10.0999 15.0584 9.49669 14.9426 8.91474C14.8269 8.3328 14.5412 7.79825 14.1216 7.3787C13.702 6.95914 13.1675 6.67342 12.5856 6.55766C12.0036 6.4419 11.4004 6.50131 10.8522 6.72838C10.3041 6.95544 9.83552 7.33996 9.50588 7.83331C9.17623 8.32665 9.00028 8.90667 9.00028 9.50002C9.00028 10.2957 9.31635 11.0587 9.87896 11.6213C10.4416 12.1839 11.2046 12.5 12.0003 12.5ZM6.75028 7.25002C6.75028 7.0511 6.67127 6.86034 6.53061 6.71969C6.38996 6.57903 6.1992 6.50002 6.00028 6.50002C5.57947 6.49998 5.16709 6.38193 4.81 6.15927C4.45292 5.93662 4.16543 5.61828 3.98019 5.24043C3.79495 4.86257 3.71939 4.44034 3.76209 4.0217C3.8048 3.60305 3.96405 3.20477 4.22176 2.8721C4.47947 2.53942 4.82531 2.28569 5.22 2.13972C5.61469 1.99374 6.04241 1.96138 6.45457 2.04631C6.86672 2.13124 7.2468 2.33005 7.55164 2.62016C7.85647 2.91027 8.07383 3.28006 8.17903 3.68752C8.22876 3.88021 8.353 4.04526 8.52442 4.14636C8.69584 4.24745 8.9004 4.27631 9.0931 4.22658C9.28579 4.17685 9.45084 4.05261 9.55194 3.88119C9.65303 3.70977 9.68189 3.50521 9.63216 3.31251C9.48614 2.7475 9.21026 2.22436 8.82648 1.78472C8.4427 1.34508 7.96161 1.00108 7.42149 0.780093C6.88137 0.559103 6.29712 0.467223 5.71524 0.511762C5.13336 0.556301 4.56991 0.736031 4.06972 1.03665C3.56952 1.33727 3.14639 1.75048 2.83399 2.24341C2.52159 2.73633 2.32855 3.29537 2.27022 3.87602C2.2119 4.45668 2.2899 5.04294 2.49801 5.58815C2.70613 6.13337 3.03862 6.62248 3.46903 7.01658C2.45024 7.45856 1.5647 8.15923 0.900284 9.04908C0.780813 9.20821 0.729448 9.40828 0.757491 9.60528C0.785533 9.80228 0.890686 9.98008 1.04982 10.0995C1.20895 10.219 1.40902 10.2704 1.60602 10.2423C1.80302 10.2143 1.98081 10.1091 2.10028 9.95002C2.55233 9.34239 3.14073 8.84938 3.81812 8.51069C4.49551 8.172 5.24295 7.99708 6.00028 8.00002C6.1992 8.00002 6.38996 7.921 6.53061 7.78035C6.67127 7.63969 6.75028 7.44893 6.75028 7.25002Z" fill="#2C3A47"/>
</svg>
