<svg width="24" height="16" viewBox="0 0 24 16" fill="none" xmlns="http://www.w3.org/2000/svg">
<path d="M10.9921 10.8053C11.9973 10.1361 12.7605 9.16122 13.1687 8.02475C13.577 6.88829 13.6087 5.65061 13.2591 4.49474C12.9095 3.33887 12.1973 2.32618 11.2276 1.60642C10.258 0.88666 9.0825 0.498047 7.87492 0.498047C6.66735 0.498047 5.49184 0.88666 4.52221 1.60642C3.55258 2.32618 2.84032 3.33887 2.49076 4.49474C2.1412 5.65061 2.17288 6.88829 2.58114 8.02475C2.9894 9.16122 3.75255 10.1361 4.75774 10.8053C2.93945 11.4755 1.38659 12.7156 0.330862 14.3406C0.275377 14.4231 0.236837 14.5158 0.217482 14.6133C0.198127 14.7108 0.198344 14.8111 0.218119 14.9085C0.237895 15.0059 0.276835 15.0984 0.332676 15.1807C0.388516 15.2629 0.460144 15.3332 0.543396 15.3875C0.626647 15.4418 0.719861 15.479 0.81762 15.497C0.915378 15.5149 1.01573 15.5133 1.11285 15.4921C1.20996 15.4709 1.3019 15.4307 1.38332 15.3737C1.46473 15.3167 1.53401 15.244 1.58711 15.16C2.2681 14.1126 3.19995 13.2519 4.29802 12.6561C5.3961 12.0603 6.62562 11.7482 7.87492 11.7482C9.12423 11.7482 10.3538 12.0603 11.4518 12.6561C12.5499 13.2519 13.4817 14.1126 14.1627 15.16C14.2727 15.3235 14.4427 15.4371 14.6358 15.4763C14.8289 15.5156 15.0297 15.4772 15.1947 15.3695C15.3598 15.2619 15.4758 15.0936 15.5178 14.9011C15.5598 14.7085 15.5243 14.5072 15.419 14.3406C14.3633 12.7156 12.8104 11.4755 10.9921 10.8053ZM3.74992 6.12533C3.74992 5.30948 3.99185 4.51195 4.44511 3.8336C4.89837 3.15525 5.54261 2.62654 6.29636 2.31433C7.0501 2.00212 7.8795 1.92043 8.67967 2.07959C9.47984 2.23875 10.2148 2.63162 10.7917 3.20851C11.3686 3.78541 11.7615 4.52041 11.9207 5.32058C12.0798 6.12075 11.9981 6.95015 11.6859 7.7039C11.3737 8.45764 10.845 9.10188 10.1667 9.55514C9.4883 10.0084 8.69077 10.2503 7.87492 10.2503C6.78129 10.2491 5.7328 9.81409 4.95948 9.04077C4.18616 8.26746 3.75117 7.21897 3.74992 6.12533ZM23.4506 15.3785C23.284 15.4871 23.081 15.5251 22.8864 15.4841C22.6918 15.4432 22.5214 15.3266 22.4127 15.16C21.7326 14.112 20.8008 13.2509 19.7025 12.6554C18.6042 12.0598 17.3743 11.7487 16.1249 11.7503C15.926 11.7503 15.7352 11.6713 15.5946 11.5307C15.4539 11.39 15.3749 11.1992 15.3749 11.0003C15.3749 10.8014 15.4539 10.6107 15.5946 10.47C15.7352 10.3293 15.926 10.2503 16.1249 10.2503C16.7324 10.2498 17.3322 10.115 17.8816 9.85575C18.431 9.59648 18.9163 9.21907 19.3029 8.75049C19.6895 8.28191 19.9678 7.73373 20.118 7.14512C20.2682 6.5565 20.2865 5.94198 20.1716 5.34547C20.0568 4.74895 19.8116 4.18516 19.4536 3.69439C19.0956 3.20361 18.6337 2.79796 18.1007 2.50642C17.5678 2.21488 16.977 2.04465 16.3707 2.00789C15.7643 1.97113 15.1573 2.06875 14.5931 2.29377C14.501 2.33354 14.402 2.35447 14.3018 2.35531C14.2016 2.35616 14.1022 2.33691 14.0095 2.2987C13.9169 2.26049 13.8328 2.20409 13.7623 2.13284C13.6918 2.0616 13.6363 1.97694 13.5991 1.88388C13.5619 1.79082 13.5437 1.69124 13.5456 1.59103C13.5475 1.49082 13.5695 1.39201 13.6102 1.30044C13.651 1.20887 13.7097 1.12639 13.7828 1.05788C13.856 0.989376 13.9421 0.936228 14.0362 0.901579C15.3275 0.386564 16.7639 0.368031 18.0681 0.849554C19.3723 1.33108 20.452 2.27854 21.0989 3.50916C21.7458 4.73978 21.914 6.16636 21.5711 7.51369C21.2283 8.86102 20.3986 10.0336 19.2421 10.8053C21.0604 11.4755 22.6133 12.7156 23.669 14.3406C23.7776 14.5072 23.8156 14.7102 23.7747 14.9048C23.7337 15.0994 23.6171 15.2698 23.4506 15.3785Z" fill="#2C3A47"/>
</svg>
