<svg width="79" height="78" viewBox="0 0 79 78" fill="none" xmlns="http://www.w3.org/2000/svg">
<path d="M39.5 0C31.7865 0 24.2463 2.28731 17.8328 6.57269C11.4193 10.8581 6.42053 16.949 3.46872 24.0753C0.516898 31.2017 -0.255432 39.0433 1.24939 46.6085C2.75422 54.1738 6.46861 61.1229 11.9229 66.5772C17.3771 72.0314 24.3262 75.7458 31.8915 77.2506C39.4568 78.7554 47.2984 77.9831 54.4247 75.0313C61.551 72.0795 67.642 67.0808 71.9273 60.6672C76.2127 54.2537 78.5 46.7135 78.5 39C78.4891 28.6599 74.3767 18.7464 67.0651 11.4349C59.7536 4.12334 49.8401 0.0109193 39.5 0ZM56.6225 32.1225L35.6225 53.1225C35.3439 53.4014 35.013 53.6227 34.6488 53.7737C34.2846 53.9247 33.8943 54.0024 33.5 54.0024C33.1058 54.0024 32.7154 53.9247 32.3512 53.7737C31.987 53.6227 31.6561 53.4014 31.3775 53.1225L22.3775 44.1225C21.8146 43.5596 21.4983 42.7961 21.4983 42C21.4984 41.2039 21.8146 40.4404 22.3775 39.8775C22.9404 39.3146 23.7039 38.9983 24.5 38.9983C25.2961 38.9983 26.0596 39.3146 26.6225 39.8775L33.5 46.7588L52.3775 27.8775C52.6562 27.5988 52.9871 27.3777 53.3513 27.2268C53.7155 27.076 54.1058 26.9983 54.5 26.9983C54.8942 26.9983 55.2845 27.076 55.6487 27.2268C56.0129 27.3777 56.3438 27.5988 56.6225 27.8775C56.9012 28.1562 57.1223 28.4871 57.2732 28.8513C57.424 29.2155 57.5017 29.6058 57.5017 30C57.5017 30.3942 57.424 30.7845 57.2732 31.1487C57.1223 31.5129 56.9012 31.8438 56.6225 32.1225Z" fill="#67B684"/>
</svg>
