<svg width="49" height="48" viewBox="0 0 49 48" fill="none" xmlns="http://www.w3.org/2000/svg">
<rect x="0.833374" width="48" height="48" rx="24" fill="#E1F0E6"/>
<path d="M32.3334 14.25H19.5834C18.7877 14.25 18.0247 14.5661 17.4621 15.1287C16.8994 15.6913 16.5834 16.4544 16.5834 17.25V33C16.5834 33.1989 16.6624 33.3897 16.803 33.5303C16.9437 33.671 17.1345 33.75 17.3334 33.75H30.8334C31.0323 33.75 31.2231 33.671 31.3637 33.5303C31.5044 33.3897 31.5834 33.1989 31.5834 33C31.5834 32.8011 31.5044 32.6103 31.3637 32.4697C31.2231 32.329 31.0323 32.25 30.8334 32.25H18.0834C18.0834 31.8522 18.2414 31.4706 18.5227 31.1893C18.804 30.908 19.1855 30.75 19.5834 30.75H32.3334C32.5323 30.75 32.7231 30.671 32.8637 30.5303C33.0044 30.3897 33.0834 30.1989 33.0834 30V15C33.0834 14.8011 33.0044 14.6103 32.8637 14.4697C32.7231 14.329 32.5323 14.25 32.3334 14.25ZM31.5834 29.25H19.5834C19.0566 29.2493 18.5391 29.388 18.0834 29.6522V17.25C18.0834 16.8522 18.2414 16.4706 18.5227 16.1893C18.804 15.908 19.1855 15.75 19.5834 15.75H31.5834V29.25Z" fill="#56986E"/>
</svg>
