<svg width="49" height="48" viewBox="0 0 49 48" fill="none" xmlns="http://www.w3.org/2000/svg">
<rect x="0.166626" width="48" height="48" rx="24" fill="#F9E5D5"/>
<path d="M33.1666 30.75H32.4166V15.75C32.4166 15.5511 32.3376 15.3603 32.197 15.2197C32.0563 15.079 31.8655 15 31.6666 15H26.4166C26.2177 15 26.0269 15.079 25.8863 15.2197C25.7456 15.3603 25.6666 15.5511 25.6666 15.75V19.5H21.1666C20.9677 19.5 20.7769 19.579 20.6363 19.7197C20.4956 19.8603 20.4166 20.0511 20.4166 20.25V24H16.6666C16.4677 24 16.2769 24.079 16.1363 24.2197C15.9956 24.3603 15.9166 24.5511 15.9166 24.75V30.75H15.1666C14.9677 30.75 14.7769 30.829 14.6363 30.9697C14.4956 31.1103 14.4166 31.3011 14.4166 31.5C14.4166 31.6989 14.4956 31.8897 14.6363 32.0303C14.7769 32.171 14.9677 32.25 15.1666 32.25H33.1666C33.3655 32.25 33.5563 32.171 33.697 32.0303C33.8376 31.8897 33.9166 31.6989 33.9166 31.5C33.9166 31.3011 33.8376 31.1103 33.697 30.9697C33.5563 30.829 33.3655 30.75 33.1666 30.75ZM27.1666 16.5H30.9166V30.75H27.1666V16.5ZM21.9166 21H25.6666V30.75H21.9166V21ZM17.4166 25.5H20.4166V30.75H17.4166V25.5Z" fill="#BB6927"/>
</svg>
