<svg width="63" height="56" viewBox="0 0 63 56" fill="none" xmlns="http://www.w3.org/2000/svg">
  <path d="M47.4971 29.6233L47.5195 29.757L47.6055 29.8606L48.082 30.4338V34.3235C47.7348 34.6629 47.5457 34.7051 47.4316 34.6975C47.2794 34.6872 47.0763 34.5847 46.7158 34.2912V30.4338L47.1914 29.8606L47.2783 29.757L47.3008 29.6233L47.3984 29.0315L47.4971 29.6233ZM25.4199 27.7541L25.0762 27.6418L19.9277 25.9504L33.8037 20.8069L47.6738 25.3049L47.1924 25.5227L46.8398 25.6643L46.8418 25.6809L42.4609 27.6604L42.166 27.7932V32.8078C39.297 34.3815 36.9731 35.1858 34.4668 35.2092C31.9412 35.2328 29.1734 34.4641 25.4199 32.7795V27.7541Z" fill="#000000" stroke="#000000"/>
  <path d="M32.9688 11.4718C44.2643 9.95569 52.0752 11.9996 56.7988 15.6642C61.55 19.3501 63.2444 24.7229 62.207 29.9796C60.1347 40.4791 47.0308 50.7437 25.0293 45.4435L24.6807 45.3595L24.4893 45.6642C20.3897 52.1908 16.2473 54.9051 12.7266 55.4103C9.21836 55.9137 6.18793 54.2431 4.24023 51.6837C2.28475 49.114 1.47397 45.7156 2.35059 42.8702C3.21295 40.0715 5.74948 37.6824 10.7666 37.1642L11.7139 37.0665L11.0957 36.3419C10.576 35.7326 10.0439 35.1656 9.5791 34.6544C9.10695 34.1352 8.70542 33.6751 8.41309 33.2501C8.11784 32.8209 7.9688 32.4761 7.94238 32.1896C7.91878 31.9332 7.98839 31.6729 8.25977 31.3761C8.54857 31.0607 9.15452 31.0475 9.68359 31.4572L16.6885 36.881C16.6224 37.2577 16.5249 37.5482 16.3936 37.7765C16.2362 38.0498 16.0219 38.2575 15.7217 38.423C15.0856 38.7735 14.0799 38.9312 12.4688 39.0177L12.4141 39.0206L12.3604 39.0353C7.83364 40.3075 5.59125 42.5407 5.07422 44.9572C4.56094 47.3572 5.80005 49.7234 7.7666 51.1447C9.74607 52.5751 12.5305 53.105 15.2119 51.7892C17.8115 50.5133 20.2151 47.552 21.7246 42.2404C33.8242 44.8082 42.7692 44.0962 48.8711 41.5939C55.0606 39.0556 58.3295 34.6679 58.9102 30.049C59.4895 25.4399 57.3775 20.7046 53.0244 17.504C48.689 14.3165 42.1505 12.6583 33.8174 14.0665C33.0149 13.8434 32.7544 13.5987 32.665 13.3273C32.6109 13.163 32.595 12.9251 32.6582 12.5646C32.7106 12.266 32.8136 11.9072 32.9688 11.4718Z" fill="#000000" stroke="#000000"/>
  <path d="M10.6279 22.0361L10.2627 21.9346C4.63038 20.3688 1.79237 17.2279 0.859375 13.8877C-0.0805445 10.5222 0.883918 6.85751 3.04883 4.20703C5.20755 1.56418 8.52639 -0.0333002 12.2842 0.663086C16.0544 1.36181 20.3874 4.39227 24.4873 11.2715L24.7217 11.666L25.1348 11.4658C26.2596 10.9214 26.9728 10.7495 27.4756 10.8545C27.924 10.9482 28.3433 11.2998 28.7754 12.2568C28.9803 12.7107 28.862 13.2665 28.4766 13.6289C26.8747 15.1351 25.7055 15.5081 24.5508 15.1064C23.9361 14.8925 23.2714 14.4434 22.5137 13.709C21.7645 12.9829 20.9492 12.0012 20.0215 10.752C17.4766 5.36839 14.3664 3.13465 11.3799 3.0127C8.41007 2.89145 5.8039 4.87261 4.30371 7.37402C2.80612 9.87129 2.30589 13.0644 3.77637 15.4844C5.21701 17.8551 8.4063 19.2629 13.7666 18.7012V25.8135C13.0137 26.8522 12.5602 27.0414 12.248 27.0098C12.065 26.9911 11.8376 26.8934 11.5352 26.6582C11.2664 26.4491 10.972 26.156 10.6279 25.7822V22.0361Z" fill="#000000" stroke="#000000"/>
</svg>
