<svg width="56" height="56" viewBox="0 0 56 56" fill="none" xmlns="http://www.w3.org/2000/svg">
<rect width="56" height="56" rx="28" fill="#E6F0FF"/>
<path d="M37.6484 35.8751C36.2206 33.4067 34.0203 31.6367 31.4525 30.7976C32.7226 30.0415 33.7094 28.8893 34.2614 27.518C34.8134 26.1468 34.8999 24.6322 34.5078 23.207C34.1157 21.7818 33.2666 20.5247 32.0909 19.6287C30.9151 18.7328 29.4778 18.2476 27.9996 18.2476C26.5215 18.2476 25.0841 18.7328 23.9084 19.6287C22.7327 20.5247 21.8836 21.7818 21.4915 23.207C21.0993 24.6322 21.1859 26.1468 21.7379 27.518C22.2898 28.8893 23.2767 30.0415 24.5468 30.7976C21.979 31.6357 19.7787 33.4057 18.3509 35.8751C18.2985 35.9605 18.2638 36.0555 18.2488 36.1545C18.2337 36.2535 18.2386 36.3545 18.2633 36.4516C18.2879 36.5487 18.3317 36.6399 18.3921 36.7197C18.4526 36.7996 18.5284 36.8666 18.6151 36.9167C18.7018 36.9667 18.7977 36.999 18.8971 37.0114C18.9965 37.0238 19.0973 37.0163 19.1937 36.9891C19.2901 36.9619 19.3801 36.9157 19.4584 36.8532C19.5366 36.7907 19.6015 36.7131 19.6493 36.6251C21.4156 33.5726 24.5375 31.7501 27.9996 31.7501C31.4618 31.7501 34.5837 33.5726 36.35 36.6251C36.3977 36.7131 36.4627 36.7907 36.5409 36.8532C36.6192 36.9157 36.7092 36.9619 36.8056 36.9891C36.902 37.0163 37.0028 37.0238 37.1022 37.0114C37.2016 36.999 37.2975 36.9667 37.3842 36.9167C37.4709 36.8666 37.5467 36.7996 37.6072 36.7197C37.6676 36.6399 37.7114 36.5487 37.736 36.4516C37.7607 36.3545 37.7656 36.2535 37.7505 36.1545C37.7355 36.0555 37.7008 35.9605 37.6484 35.8751ZM22.7496 25.0001C22.7496 23.9618 23.0576 22.9467 23.6344 22.0834C24.2113 21.22 25.0312 20.5471 25.9906 20.1497C26.9499 19.7524 28.0055 19.6484 29.0239 19.851C30.0423 20.0536 30.9777 20.5536 31.712 21.2878C32.4462 22.022 32.9462 22.9575 33.1488 23.9759C33.3513 24.9943 33.2474 26.0499 32.85 27.0092C32.4527 27.9685 31.7797 28.7884 30.9164 29.3653C30.053 29.9422 29.038 30.2501 27.9996 30.2501C26.6077 30.2486 25.2732 29.695 24.289 28.7108C23.3047 27.7265 22.7511 26.392 22.7496 25.0001Z" fill="#0457D4"/>
</svg>
