<svg width="56" height="56" viewBox="0 0 56 56" fill="none" xmlns="http://www.w3.org/2000/svg">
<rect width="56" height="56" rx="28" fill="#EEF6F1"/>
<path d="M39.6023 24.3382L28.3523 18.3382C28.2438 18.2805 28.1227 18.2502 27.9998 18.2502C27.8768 18.2502 27.7558 18.2805 27.6473 18.3382L16.3973 24.3382C16.2773 24.4022 16.1769 24.4976 16.1069 24.6141C16.037 24.7307 16 24.8641 16 25.0001C16 25.1361 16.037 25.2695 16.1069 25.3861C16.1769 25.5027 16.2773 25.598 16.3973 25.662L18.9998 27.0504V31.5898C18.999 31.9582 19.1346 32.3139 19.3804 32.5882C20.6085 33.9561 23.3601 36.2501 27.9998 36.2501C29.5382 36.2628 31.065 35.9842 32.4998 35.4289V38.5001C32.4998 38.699 32.5788 38.8898 32.7194 39.0304C32.8601 39.1711 33.0509 39.2501 33.2498 39.2501C33.4487 39.2501 33.6394 39.1711 33.7801 39.0304C33.9207 38.8898 33.9998 38.699 33.9998 38.5001V34.7042C34.9778 34.1396 35.8616 33.4257 36.6191 32.5882C36.865 32.3139 37.0005 31.9582 36.9998 31.5898V27.0504L39.6023 25.662C39.7223 25.598 39.8226 25.5027 39.8926 25.3861C39.9626 25.2695 39.9995 25.1361 39.9995 25.0001C39.9995 24.8641 39.9626 24.7307 39.8926 24.6141C39.8226 24.4976 39.7223 24.4022 39.6023 24.3382ZM27.9998 34.7501C23.9432 34.7501 21.5573 32.7682 20.4998 31.5898V27.8501L27.6473 31.662C27.7558 31.7198 27.8768 31.75 27.9998 31.75C28.1227 31.75 28.2438 31.7198 28.3523 31.662L32.4998 29.4504V33.7948C31.3185 34.3461 29.8298 34.7501 27.9998 34.7501ZM35.4998 31.5861C35.0502 32.0849 34.5472 32.5329 33.9998 32.922V28.6498L35.4998 27.8501V31.5861ZM33.6248 27.1507L33.6041 27.1386L28.3541 24.3382C28.179 24.2488 27.9757 24.2317 27.7881 24.2907C27.6004 24.3497 27.4435 24.48 27.351 24.6536C27.2586 24.8272 27.238 25.0302 27.2938 25.2188C27.3495 25.4074 27.4771 25.5666 27.6491 25.662L32.031 28.0001L27.9998 30.1498L18.3435 25.0001L27.9998 19.8504L37.656 25.0001L33.6248 27.1507Z" fill="#56986E"/>
</svg>
