<svg width="51" height="50" viewBox="0 0 51 50" fill="none" xmlns="http://www.w3.org/2000/svg">
<path d="M27.8438 25.0001C27.8438 25.4636 27.7063 25.9168 27.4488 26.3022C27.1912 26.6876 26.8252 26.988 26.3969 27.1654C25.9686 27.3428 25.4974 27.3892 25.0428 27.2988C24.5881 27.2084 24.1705 26.9851 23.8427 26.6574C23.5149 26.3296 23.2917 25.912 23.2013 25.4573C23.1108 25.0027 23.1573 24.5314 23.3347 24.1032C23.5121 23.6749 23.8125 23.3089 24.1979 23.0513C24.5833 22.7938 25.0364 22.6563 25.5 22.6563C26.1216 22.6563 26.7177 22.9033 27.1573 23.3428C27.5968 23.7823 27.8438 24.3785 27.8438 25.0001ZM16.9062 22.6563C16.4427 22.6563 15.9896 22.7938 15.6041 23.0513C15.2187 23.3089 14.9183 23.6749 14.7409 24.1032C14.5635 24.5314 14.5171 25.0027 14.6075 25.4573C14.698 25.912 14.9212 26.3296 15.249 26.6574C15.5767 26.9851 15.9944 27.2084 16.449 27.2988C16.9036 27.3892 17.3749 27.3428 17.8032 27.1654C18.2314 26.988 18.5975 26.6876 18.855 26.3022C19.1125 25.9168 19.25 25.4636 19.25 25.0001C19.25 24.3785 19.0031 23.7823 18.5635 23.3428C18.124 22.9033 17.5279 22.6563 16.9062 22.6563ZM34.0938 22.6563C33.6302 22.6563 33.1771 22.7938 32.7916 23.0513C32.4062 23.3089 32.1058 23.6749 31.9284 24.1032C31.751 24.5314 31.7046 25.0027 31.795 25.4573C31.8855 25.912 32.1087 26.3296 32.4365 26.6574C32.7642 26.9851 33.1819 27.2084 33.6365 27.2988C34.0912 27.3892 34.5624 27.3428 34.9907 27.1654C35.4189 26.988 35.785 26.6876 36.0425 26.3022C36.3 25.9168 36.4375 25.4636 36.4375 25.0001C36.4375 24.3785 36.1906 23.7823 35.751 23.3428C35.3115 22.9033 34.7154 22.6563 34.0938 22.6563ZM45.8125 25.0001C45.8133 28.507 44.9061 31.9544 43.1792 35.0066C41.4524 38.0589 38.9647 40.6121 35.9584 42.4177C32.9521 44.2233 29.5294 45.2199 26.0237 45.3103C22.518 45.4007 19.0485 44.5819 15.9531 42.9337L9.30273 45.1505C8.75212 45.3341 8.16125 45.3608 7.59634 45.2274C7.03143 45.0941 6.51482 44.8061 6.1044 44.3957C5.69397 43.9853 5.40597 43.4687 5.27265 42.9037C5.13934 42.3388 5.16599 41.748 5.34961 41.1974L7.56641 34.547C6.11748 31.8228 5.3082 28.8044 5.19999 25.7207C5.09179 22.6371 5.68751 19.5694 6.94193 16.7504C8.19635 13.9313 10.0765 11.4351 12.4397 9.45125C14.8029 7.46735 17.5869 6.0479 20.5806 5.30063C23.5743 4.55336 26.6988 4.49792 29.7171 5.13851C32.7354 5.7791 35.5681 7.09888 38.0002 8.99769C40.4322 10.8965 42.3998 13.3244 43.7534 16.0972C45.1071 18.8699 45.8112 21.9146 45.8125 25.0001ZM42.6875 25.0001C42.6868 22.3636 42.0795 19.7626 40.9127 17.3984C39.7459 15.0342 38.0508 12.9701 35.9586 11.3658C33.8664 9.76148 31.4332 8.66 28.8472 8.14655C26.2612 7.6331 23.5918 7.72146 21.0454 8.40477C18.499 9.08809 16.1439 10.3481 14.1624 12.0872C12.1809 13.8263 10.626 15.998 9.61809 18.4342C8.61016 20.8704 8.17621 23.5058 8.34979 26.1366C8.52338 28.7673 9.29985 31.3229 10.6191 33.6056C10.7299 33.7972 10.7986 34.0102 10.8208 34.2304C10.8431 34.4506 10.8183 34.673 10.748 34.8829L8.3125 42.1876L15.6172 39.752C15.7763 39.6978 15.9432 39.6701 16.1113 39.67C16.3857 39.6705 16.6552 39.7432 16.8926 39.8809C19.5055 41.3927 22.4704 42.1896 25.4891 42.1915C28.5079 42.1934 31.4738 41.4003 34.0886 39.8918C36.7034 38.3834 38.8748 36.2128 40.3843 33.5986C41.8938 30.9844 42.6882 28.0188 42.6875 25.0001Z" fill="#2C3A47"/>
</svg>
