<svg width="33" height="35" viewBox="0 0 33 35" fill="none" xmlns="http://www.w3.org/2000/svg">
<path d="M31.0456 12.4267L28.3689 7.78769C27.7948 6.79355 26.8493 6.06811 25.7405 5.77089C24.6316 5.47366 23.4501 5.62898 22.4557 6.2027C21.9012 6.52309 21.4256 6.96379 21.064 7.49234L18.3703 2.83942C17.9901 2.18185 17.4436 1.63586 16.7857 1.25628C16.1277 0.876701 15.3815 0.67688 14.622 0.67688C13.8624 0.67688 13.1162 0.876701 12.4583 1.25628C11.8003 1.63586 11.2538 2.18185 10.8736 2.83942C10.083 2.21683 9.10009 1.88912 8.09399 1.91262C7.08789 1.93612 6.12139 2.30936 5.36064 2.96818C4.59988 3.627 4.09239 4.53025 3.92538 5.52268C3.75838 6.5151 3.94229 7.5347 4.44552 8.40623L4.69139 8.83302C4.05159 8.88264 3.43114 9.07553 2.87599 9.39743C1.88169 9.97181 1.15628 10.9176 0.859332 12.0269C0.56238 13.1361 0.718211 14.3178 1.29255 15.3122L7.47789 26.0314C8.36778 27.5817 9.55614 28.9402 10.9743 30.0284C12.3924 31.1166 14.0122 31.9129 15.74 32.3713C16.896 32.6801 18.0876 32.8361 19.2842 32.8352C21.6708 32.8312 24.0145 32.1994 26.0799 31.0034C28.1453 29.8074 29.8598 28.0893 31.0514 26.0213C32.243 23.9534 32.8697 21.6084 32.8687 19.2217C32.8677 16.835 32.2389 14.4905 31.0456 12.4236V12.4267ZM30.0157 22.1129C29.4454 24.2394 28.2574 26.1491 26.602 27.6005C24.9465 29.052 22.8979 29.98 20.7151 30.2673C18.5323 30.5546 16.3133 30.1883 14.3386 29.2147C12.3639 28.2411 10.7223 26.7039 9.62111 24.7974L3.43577 14.0782C3.20031 13.6527 3.14128 13.1518 3.27137 12.6833C3.40146 12.2147 3.71027 11.816 4.13138 11.5728C4.55248 11.3296 5.05221 11.2614 5.52306 11.383C5.99391 11.5045 6.39823 11.806 6.64905 12.2226L9.62265 17.375C9.70149 17.5201 9.8086 17.6481 9.93766 17.7512C10.0667 17.8543 10.2151 17.9305 10.3741 17.9753C10.5331 18.0201 10.6995 18.0327 10.8634 18.0121C11.0273 17.9916 11.1855 17.9385 11.3285 17.8559C11.4716 17.7732 11.5966 17.6628 11.6963 17.531C11.796 17.3993 11.8683 17.2489 11.9089 17.0888C11.9495 16.9287 11.9576 16.7621 11.9328 16.5987C11.908 16.4354 11.8507 16.2787 11.7643 16.1379L6.5872 7.16916C6.46004 6.95795 6.37624 6.72353 6.3407 6.47957C6.30516 6.23562 6.31858 5.98703 6.38019 5.74832C6.4418 5.50961 6.55036 5.28558 6.69952 5.0893C6.84869 4.89301 7.03547 4.72842 7.24896 4.60514C7.46245 4.48185 7.69836 4.40235 7.94293 4.37126C8.18749 4.34017 8.43579 4.35813 8.67334 4.42408C8.91088 4.49003 9.1329 4.60266 9.32643 4.75538C9.51996 4.9081 9.68111 5.09785 9.80048 5.31355L14.6281 13.6638C14.707 13.8089 14.8141 13.9369 14.9432 14.04C15.0722 14.1431 15.2206 14.2193 15.3796 14.2641C15.5386 14.3089 15.705 14.3214 15.8689 14.3009C16.0328 14.2804 16.191 14.2273 16.334 14.1446C16.4771 14.062 16.6021 13.9516 16.7018 13.8198C16.8015 13.6881 16.8737 13.5377 16.9144 13.3776C16.955 13.2175 16.9631 13.0509 16.9383 12.8875C16.9135 12.7242 16.8562 12.5675 16.7698 12.4267L13.0153 5.93209C12.8882 5.72088 12.8044 5.48646 12.7688 5.2425C12.7333 4.99855 12.7467 4.74996 12.8083 4.51125C12.8699 4.27255 12.9785 4.04851 13.1276 3.85223C13.2768 3.65595 13.4636 3.49136 13.6771 3.36807C13.8906 3.24479 14.1265 3.16528 14.371 3.13419C14.6156 3.1031 14.8639 3.12106 15.1015 3.18701C15.339 3.25297 15.561 3.36559 15.7545 3.51831C15.9481 3.67103 16.1092 3.86078 16.2286 4.07649L21.3965 13.0298C20.1927 14.2521 19.4496 15.8537 19.2934 17.5621C19.1372 19.2705 19.5776 20.9802 20.5398 22.4006C20.7243 22.6721 21.0092 22.8591 21.3317 22.9206C21.6541 22.9821 21.9878 22.9129 22.2593 22.7284C22.5308 22.5438 22.7179 22.259 22.7793 21.9365C22.8408 21.614 22.7717 21.2804 22.5871 21.0089C21.8767 19.9567 21.5978 18.6717 21.8082 17.4197C22.0186 16.1677 22.7022 15.0444 23.7175 14.2823C23.9595 14.1009 24.1267 13.837 24.1874 13.5407C24.2481 13.2444 24.1981 12.9361 24.0469 12.6741L23.0139 10.8804C22.8826 10.6691 22.795 10.4336 22.7565 10.1879C22.7179 9.94214 22.7292 9.69115 22.7896 9.44984C22.85 9.20854 22.9583 8.98184 23.108 8.78322C23.2578 8.5846 23.446 8.41812 23.6614 8.29368C23.8768 8.16924 24.115 8.08938 24.3618 8.05884C24.6087 8.02829 24.8592 8.0477 25.0984 8.1159C25.3376 8.1841 25.5607 8.29971 25.7543 8.45584C25.948 8.61197 26.1083 8.80545 26.2257 9.02476L28.9024 13.6638C29.6368 14.9282 30.1133 16.3257 30.3044 17.7754C30.4955 19.2251 30.3974 20.6983 30.0157 22.1099V22.1129ZM25.4911 1.86677C25.5744 1.54999 25.7798 1.27914 26.0625 1.11362C26.3451 0.948099 26.6818 0.901418 26.9988 0.983815C28.1803 1.29519 29.2881 1.83831 30.2579 2.58161C31.2276 3.3249 32.0399 4.25355 32.6476 5.31355L32.6986 5.4017C32.785 5.54252 32.8423 5.69921 32.8671 5.86253C32.8919 6.02585 32.8838 6.19249 32.8432 6.35261C32.8025 6.51274 32.7303 6.6631 32.6306 6.79484C32.5309 6.92658 32.4059 7.03702 32.2628 7.11965C32.1198 7.20227 31.9616 7.25541 31.7977 7.27593C31.6338 7.29644 31.4674 7.28392 31.3084 7.2391C31.1494 7.19428 31.001 7.11807 30.872 7.01496C30.7429 6.91185 30.6358 6.78394 30.5569 6.63876L30.5059 6.55062C30.0599 5.77379 29.4638 5.09344 28.7524 4.54922C28.0409 4.00499 27.2282 3.60775 26.3617 3.38064C26.0459 3.29481 25.7769 3.0873 25.6137 2.80355C25.4505 2.5198 25.4065 2.18295 25.4911 1.86677ZM9.50823 33.6115C9.30513 33.8689 9.00814 34.0352 8.68252 34.0737C8.35691 34.1123 8.0293 34.02 7.77169 33.8172C5.92142 32.3557 4.36779 30.5538 3.19454 28.5086C3.11331 28.3679 3.0606 28.2125 3.03941 28.0514C3.01822 27.8903 3.02896 27.7266 3.07104 27.5697C3.11311 27.4127 3.18568 27.2656 3.28461 27.1367C3.38354 27.0078 3.50689 26.8997 3.64761 26.8184C3.78834 26.7372 3.94369 26.6845 4.10479 26.6633C4.26588 26.6421 4.42958 26.6529 4.58652 26.6949C4.74347 26.737 4.89059 26.8096 5.01948 26.9085C5.14838 27.0074 5.25653 27.1308 5.33776 27.2715C6.35465 29.0419 7.70037 30.6018 9.30256 31.8672C9.43114 31.9679 9.53852 32.093 9.61851 32.2353C9.69851 32.3776 9.74954 32.5344 9.76866 32.6965C9.78777 32.8587 9.77461 33.023 9.72991 33.18C9.68521 33.3371 9.60987 33.4837 9.50823 33.6115Z" fill="#D2AF5B"/>
</svg>
